<svg width="132" height="37" viewBox="0 0 132 37" fill="none" xmlns="http://www.w3.org/2000/svg">
<path d="M41.3831 6.79677C41.4455 6.69051 41.4642 6.56419 41.4352 6.44442C41.4063 6.32466 41.332 6.2208 41.228 6.15473C41.124 6.08866 40.9984 6.06554 40.8777 6.09023C40.757 6.11492 40.6506 6.1855 40.5809 6.2871L39.4047 8.13763C38.8508 7.91714 38.2373 7.89691 37.6701 8.08044C37.1029 8.26397 36.6175 8.63974 36.2978 9.14291L36.1535 9.36996C36.0869 9.47469 36.0416 9.59153 36.0202 9.71378C35.9988 9.83604 36.0017 9.96132 36.0287 10.0825C36.0557 10.2036 36.1063 10.3182 36.1776 10.4198C36.249 10.5214 36.3396 10.6079 36.4444 10.6744L39.1689 12.4054C39.3804 12.5397 39.6366 12.5845 39.8811 12.53C40.1256 12.4755 40.3384 12.3261 40.4728 12.1146L40.617 11.8876C40.9368 11.3844 41.0709 10.7854 40.9961 10.1939C40.9214 9.60243 40.6425 9.0556 40.2077 8.64778L41.3831 6.79677ZM35.8232 11.6522C35.6117 11.5179 35.3556 11.4731 35.1111 11.5276C34.8666 11.5821 34.6537 11.7315 34.5194 11.943L34.3751 12.17C34.0555 12.6732 33.9215 13.2723 33.9964 13.8637C34.0712 14.4552 34.3502 15.0019 34.7851 15.4097L33.609 17.2608C33.5729 17.3135 33.5477 17.3729 33.5351 17.4354C33.5224 17.498 33.5225 17.5625 33.5353 17.6251C33.5481 17.6877 33.5733 17.747 33.6096 17.7996C33.6458 17.8522 33.6922 17.8969 33.7461 17.9312C33.8 17.9654 33.8603 17.9884 33.9233 17.9989C33.9863 18.0094 34.0507 18.007 34.1128 17.992C34.1749 17.977 34.2333 17.9497 34.2846 17.9116C34.3358 17.8736 34.3789 17.8256 34.4112 17.7705L35.5873 15.9193C36.1412 16.1399 36.7546 16.1603 37.3219 15.9768C37.8891 15.7934 38.3745 15.4178 38.6944 14.9147L38.8386 14.6876C38.9052 14.5829 38.9505 14.466 38.9719 14.3438C38.9934 14.2215 38.9905 14.0963 38.9635 13.9751C38.9365 13.854 38.8858 13.7393 38.8145 13.6378C38.7432 13.5362 38.6525 13.4497 38.5477 13.3832L35.8232 11.6522Z" fill="#0057FF"/>
<path d="M18.4662 19.3657H3.5711C2.6743 19.3657 1.81422 19.7219 1.18009 20.3561C0.545951 20.9902 0.189697 21.8503 0.189697 22.7471V25.2831L0.198151 25.672C0.468663 31.275 6.57717 32.8913 11.1793 32.8913C12.9207 32.8913 14.8802 32.6597 16.6554 32.0679C16.2607 31.3156 15.956 30.5195 15.7475 29.6959C14.4398 30.0975 13.0829 30.3165 11.7152 30.3468L11.1793 30.3552L10.6433 30.3468C8.50795 30.2809 6.518 29.8261 5.12148 29.0737C3.48657 28.1945 2.72575 26.9891 2.72575 25.2831V22.7454L2.74266 22.5746C2.77637 22.4128 2.85624 22.2643 2.97259 22.1469C3.0902 22.0308 3.23867 21.951 3.40034 21.9169L3.5711 21.9H16.6436C17.1276 20.9733 17.7406 20.12 18.4645 19.3657H18.4662ZM18.7874 8.37611C18.7874 6.3583 17.9858 4.42314 16.559 2.99633C15.1322 1.56952 13.1971 0.767952 11.1793 0.767952C9.16145 0.767952 7.22629 1.56952 5.79948 2.99633C4.37267 4.42314 3.5711 6.3583 3.5711 8.37611C3.5711 10.3939 4.37267 12.3291 5.79948 13.7559C7.22629 15.1827 9.16145 15.9843 11.1793 15.9843C13.1971 15.9843 15.1322 15.1827 16.559 13.7559C17.9858 12.3291 18.7874 10.3939 18.7874 8.37611ZM6.10715 8.37611C6.10715 5.57969 8.38284 3.30401 11.1793 3.30401C13.9757 3.30401 16.2514 5.57969 16.2514 8.37611C16.2514 11.1725 13.9757 13.4482 11.1793 13.4482C8.38284 13.4482 6.10715 11.1725 6.10715 8.37611ZM32.313 10.0668C32.313 8.49741 31.6896 6.99228 30.5799 5.88254C29.4701 4.7728 27.965 4.14936 26.3956 4.14936C24.8262 4.14936 23.321 4.7728 22.2113 5.88254C21.1016 6.99228 20.4781 8.49741 20.4781 10.0668C20.4781 11.6362 21.1016 13.1414 22.2113 14.2511C23.321 15.3608 24.8262 15.9843 26.3956 15.9843C27.965 15.9843 29.4701 15.3608 30.5799 14.2511C31.6896 13.1414 32.313 11.6362 32.313 10.0668ZM23.0142 10.0668C23.0142 8.20197 24.5307 6.68541 26.3956 6.68541C28.2604 6.68541 29.777 8.20197 29.777 10.0668C29.777 11.9317 28.2604 13.4482 26.3956 13.4482C24.5307 13.4482 23.0142 11.9317 23.0142 10.0668ZM35.6944 26.9738C35.6944 29.4401 34.7147 31.8053 32.9709 33.5491C31.227 35.293 28.8618 36.2727 26.3956 36.2727C23.9294 36.2727 21.5642 35.293 19.8203 33.5491C18.0764 31.8053 17.0967 29.4401 17.0967 26.9738C17.0967 24.5076 18.0764 22.1424 19.8203 20.3985C21.5642 18.6547 23.9294 17.675 26.3956 17.675C28.8618 17.675 31.227 18.6547 32.9709 20.3985C34.7147 22.1424 35.6944 24.5076 35.6944 26.9738ZM32.0662 22.9939C31.9877 22.9152 31.8944 22.8527 31.7917 22.8101C31.689 22.7675 31.5789 22.7456 31.4677 22.7456C31.3565 22.7456 31.2464 22.7675 31.1437 22.8101C31.041 22.8527 30.9477 22.9152 30.8692 22.9939L24.7049 29.1599L21.922 26.3753C21.7632 26.2166 21.548 26.1274 21.3235 26.1274C21.099 26.1274 20.8837 26.2166 20.725 26.3753C20.5662 26.5341 20.4771 26.7494 20.4771 26.9738C20.4771 27.1983 20.5662 27.4136 20.725 27.5723L24.1064 30.9538C24.1849 31.0325 24.2782 31.0949 24.3809 31.1376C24.4836 31.1802 24.5937 31.2021 24.7049 31.2021C24.8161 31.2021 24.9262 31.1802 25.0289 31.1376C25.1316 31.0949 25.2249 31.0325 25.3034 30.9538L32.0662 24.1909C32.1449 24.1124 32.2074 24.0191 32.25 23.9164C32.2926 23.8137 32.3146 23.7036 32.3146 23.5924C32.3146 23.4812 32.2926 23.3711 32.25 23.2684C32.2074 23.1657 32.1449 23.0725 32.0662 22.9939Z" fill="url(#paint0_linear_1_5)"/>
<path d="M50.3613 13.6453C50.7129 13.6584 51.0124 13.7886 51.2598 14.036C51.5072 14.2703 51.6374 14.5633 51.6504 14.9149V24.4852C51.5723 25.2664 51.1426 25.6896 50.3613 25.7547C49.9967 25.7547 49.6777 25.6375 49.4043 25.4031C49.1439 25.1557 49.0137 24.8498 49.0137 24.4852V14.9149C49.0267 14.5503 49.1634 14.2508 49.4238 14.0164C49.6842 13.769 49.9967 13.6453 50.3613 13.6453ZM53.7012 17.0828C54.5736 16.4969 55.752 15.9044 57.2363 15.3055L60.4395 13.9383C60.5827 13.8732 60.7389 13.8341 60.9082 13.8211C61.2728 13.7951 61.5853 13.9057 61.8457 14.1531C62.1061 14.3875 62.2363 14.6935 62.2363 15.0711C62.2363 15.5008 62.1452 15.8198 61.9629 16.0281C61.7936 16.2235 61.5723 16.3862 61.2988 16.5164L58.5645 17.5516C58.0306 17.7599 57.5228 17.9682 57.041 18.1766C56.5723 18.3719 56.1426 18.5998 55.752 18.8602C55.3613 19.0946 55.153 19.3615 55.127 19.661C55.153 19.9474 55.3613 20.2143 55.752 20.4617C56.1426 20.7222 56.5723 20.9565 57.041 21.1649C57.5228 21.3602 58.0306 21.562 58.5645 21.7703L61.6113 22.8836C61.8848 23.0138 62.1061 23.1831 62.2754 23.3914C62.4577 23.5867 62.5488 23.8992 62.5488 24.3289C62.5488 24.7065 62.4186 25.019 62.1582 25.2664C61.8978 25.5008 61.5853 25.605 61.2207 25.5789C61.0514 25.5659 60.8952 25.5268 60.752 25.4617L57.2363 24.0164C55.752 23.4175 54.5671 22.825 53.6816 22.2391C52.8092 21.6401 52.3665 20.7807 52.3535 19.661C52.3665 18.5412 52.8158 17.6818 53.7012 17.0828ZM75.4395 24.4461V19.7391C75.4395 19.4136 75.2702 19.2443 74.9316 19.2313H68.0957C67.8483 19.2443 67.6335 19.355 67.4512 19.5633C67.2689 19.7586 67.1322 19.993 67.041 20.2664C66.9629 20.5268 66.9238 20.7938 66.9238 21.0672C66.9238 21.3276 66.9629 21.5946 67.041 21.868C67.1322 22.1284 67.2689 22.3628 67.4512 22.5711C67.6335 22.7664 67.8483 22.8641 68.0957 22.8641H73.0957C73.4603 22.8641 73.7663 22.9943 74.0137 23.2547C74.2741 23.5021 74.4043 23.8081 74.4043 24.1727C74.4043 24.5373 74.2741 24.8432 74.0137 25.0906C73.7663 25.3511 73.4603 25.4813 73.0957 25.4813H68.1738C67.2624 25.4682 66.5072 25.2143 65.9082 24.7196C65.3223 24.2117 64.8991 23.6453 64.6387 23.0203C64.3913 22.3823 64.2676 21.7248 64.2676 21.0477C64.2676 20.3966 64.3978 19.7586 64.6582 19.1336C64.9186 18.4956 65.3418 17.9292 65.9277 17.4344C66.5137 16.9266 67.3796 16.6531 68.5254 16.6141H76.7285C77.0931 16.6141 77.4056 16.7378 77.666 16.9852C77.9264 17.2196 78.0632 17.519 78.0762 17.8836V24.4461C78.0762 24.8107 77.9395 25.1167 77.666 25.3641C77.4056 25.5985 77.0931 25.7156 76.7285 25.7156C75.9473 25.6505 75.5176 25.2274 75.4395 24.4461ZM81.3965 20.8328C81.11 20.8328 80.8626 20.7352 80.6543 20.5399C80.446 20.3315 80.3418 20.0841 80.3418 19.7977C80.3418 19.4982 80.446 19.2508 80.6543 19.0555C80.8626 18.8472 81.11 18.743 81.3965 18.743H84.7559C85.0423 18.743 85.2897 18.8472 85.498 19.0555C85.7064 19.2508 85.8105 19.4982 85.8105 19.7977C85.8105 20.0841 85.7064 20.3315 85.498 20.5399C85.2897 20.7352 85.0423 20.8328 84.7559 20.8328H81.3965ZM94.209 16.3211C94.8861 16.3211 95.5501 16.3992 96.2012 16.5555C96.8652 16.7117 97.4967 16.9461 98.0957 17.2586C98.6947 17.5581 99.222 17.9617 99.6777 18.4696C100.146 18.9774 100.4 19.5828 100.439 20.286V21.1063V24.4461C100.361 25.2274 99.9316 25.6505 99.1504 25.7156C98.7858 25.7156 98.4668 25.5985 98.1934 25.3641C97.9329 25.1167 97.8027 24.8107 97.8027 24.4461V23.5867V20.8914C97.7767 20.4878 97.6204 20.1557 97.334 19.8953C97.0605 19.6219 96.748 19.4071 96.3965 19.2508C96.0579 19.0946 95.6999 18.9774 95.3223 18.8992C94.9577 18.8211 94.5866 18.7821 94.209 18.7821C93.8314 18.7821 93.4538 18.8211 93.0762 18.8992C92.7116 18.9774 92.3535 19.0946 92.002 19.2508C91.6634 19.4071 91.3509 19.6219 91.0645 19.8953C90.791 20.1557 90.6413 20.4878 90.6152 20.8914V23.5867V24.4461C90.5501 25.2274 90.127 25.6505 89.3457 25.7156C88.9811 25.7156 88.6621 25.5985 88.3887 25.3641C88.1283 25.1167 87.998 24.8107 87.998 24.4461V21.1063V20.286C88.0371 19.5828 88.2845 18.9774 88.7402 18.4696C89.196 17.9617 89.7233 17.5581 90.3223 17.2586C90.9212 16.9461 91.5462 16.7117 92.1973 16.5555C92.8613 16.3992 93.5319 16.3211 94.209 16.3211ZM106.924 25.4813C105.778 25.4422 104.912 25.1753 104.326 24.6805C103.74 24.1727 103.317 23.6063 103.057 22.9813C102.796 22.3432 102.666 21.6987 102.666 21.0477C102.666 20.3706 102.79 19.7196 103.037 19.0946C103.298 18.4565 103.721 17.8901 104.307 17.3953C104.906 16.8875 105.661 16.6271 106.572 16.6141H113.994C114.359 16.6141 114.665 16.7378 114.912 16.9852C115.173 17.2196 115.303 17.506 115.303 17.8446C115.303 18.1961 115.173 18.4956 114.912 18.743C114.665 18.9774 114.359 19.0946 113.994 19.0946H106.689C106.403 19.0946 106.149 19.1922 105.928 19.3875C105.719 19.5828 105.563 19.8367 105.459 20.1492C105.368 20.4617 105.322 20.7677 105.322 21.0672C105.322 21.3927 105.368 21.7117 105.459 22.0242C105.563 22.3367 105.719 22.5906 105.928 22.786C106.149 22.9682 106.403 23.0659 106.689 23.0789H113.994C114.359 23.0789 114.665 23.1961 114.912 23.4305C115.173 23.6649 115.303 23.9448 115.303 24.2703C115.303 24.6089 115.173 24.8953 114.912 25.1297C114.665 25.3641 114.359 25.4813 113.994 25.4813H106.924ZM115.068 21.0086C115.068 21.256 114.958 21.4709 114.736 21.6531C114.541 21.8224 114.294 21.9071 113.994 21.9071H107.607C107.308 21.9071 107.054 21.8224 106.846 21.6531C106.637 21.4709 106.533 21.256 106.533 21.0086C106.533 20.7742 106.637 20.5659 106.846 20.3836C107.054 20.2143 107.308 20.1297 107.607 20.1297H113.994C114.294 20.1297 114.548 20.2209 114.756 20.4031C114.964 20.5724 115.068 20.7742 115.068 21.0086ZM121.787 13.6453C122.152 13.6453 122.464 13.769 122.725 14.0164C122.985 14.2508 123.122 14.5503 123.135 14.9149V16.6141H129.775C130.14 16.6141 130.452 16.7378 130.713 16.9852C130.96 17.2456 131.084 17.5581 131.084 17.9227C131.084 18.2873 130.954 18.5998 130.693 18.8602C130.446 19.1076 130.14 19.2313 129.775 19.2313H123.135V19.6219C123.122 20.1557 123.154 20.6505 123.232 21.1063C123.324 21.549 123.532 21.9461 123.857 22.2977C124.183 22.6492 124.593 22.838 125.088 22.8641H129.854C130.218 22.8771 130.518 23.0138 130.752 23.2742C130.999 23.5347 131.123 23.8472 131.123 24.2117C131.11 24.5633 130.98 24.8628 130.732 25.1102C130.498 25.3446 130.205 25.4682 129.854 25.4813H124.424C123.512 25.4292 122.757 25.1232 122.158 24.5633C121.572 23.9904 121.149 23.2938 120.889 22.4735C120.641 21.6531 120.511 20.7807 120.498 19.8563V19.2313H118.252C117.887 19.2313 117.581 19.1011 117.334 18.8406C117.074 18.5932 116.943 18.2873 116.943 17.9227C116.943 17.5581 117.067 17.2521 117.314 17.0047C117.575 16.7443 117.887 16.6141 118.252 16.6141H120.498V14.9149C120.511 14.5633 120.641 14.2703 120.889 14.036C121.136 13.7886 121.436 13.6584 121.787 13.6453Z" fill="#0057FF"/>
<defs>
<linearGradient id="paint0_linear_1_5" x1="6.31341" y1="0.767953" x2="30.5179" y2="34.4629" gradientUnits="userSpaceOnUse">
<stop stop-color="#FF842B"/>
<stop offset="1" stop-color="#FF00B8"/>
</linearGradient>
</defs>
</svg>
